# xmcd
#
# Track frame offsets:
#  150
#  20342
#  40530
#  55367
#  67260
#  80185
#  90932
#  103020
#  113335
#  125170
#  135210
#  150722
#  161322
#  178825
#  192010
#
# Disc length: 2880 seconds
#
# Revision: 0
# Processed by: cddbd v1.4PL0 Copyright (c) Steve Scherf et al.
# Submitted via: AlterCode_WhopSee 2.7
#
DISCID=bb0b3e0f
DTITLE=Leon Russell - Hank Wilson's Back!
DYEAR=1900
DGENRE=
TTITLE0=Roll In My Sweet Baby's Arms
TTITLE1=She Thinks I Still Care
TTITLE2=I'm So Lonesome I Could Cry 
TTITLE3=I'll Sail My Ship Alone
TTITLE4=Jambalya (On The Bayou)
TTITLE5=A Six Pack To Go
TTITLE6=The Battle Of New Orleans
TTITLE7=Uncle Pen
TTITLE8=Am I That Easy To Forget?
TTITLE9=Truck Drivin' Man
TTITLE10=The Window Up Above
TTITLE11=Lost Highway
TTITLE12=Goodnight Irene
TTITLE13=Hey Good Lookin' 
TTITLE14=In The Jailhouse Now
EXTD=
EXTT0=
EXTT1=
EXTT2=
EXTT3=
EXTT4=
EXTT5=
EXTT6=
EXTT7=
EXTT8=
EXTT9=
EXTT10=
EXTT11=
EXTT12=
EXTT13=
EXTT14=
PLAYORDER=
